<svg width="40" height="40" viewBox="0 0 40 40" fill="none" xmlns="http://www.w3.org/2000/svg">
<path d="M20 1.60001C9.8476 1.60001 1.59998 9.84763 1.59998 20C1.59998 30.1524 9.8476 38.4 20 38.4C30.1524 38.4 38.4 30.1524 38.4 20C38.4 9.84763 30.1524 1.60001 20 1.60001ZM20 3.20001C29.2876 3.20001 36.8 10.7124 36.8 20C36.8 29.2876 29.2876 36.8 20 36.8C10.7124 36.8 3.19998 29.2876 3.19998 20C3.19998 10.7124 10.7124 3.20001 20 3.20001ZM26.3922 12.7891C26.1811 12.7941 25.9806 12.8822 25.8343 13.0344L20 18.8688L14.1656 13.0344C14.015 12.8796 13.8082 12.7922 13.5922 12.7922C13.2666 12.7923 12.9736 12.9896 12.8511 13.2912C12.7286 13.5928 12.801 13.9386 13.0343 14.1656L18.8687 20L13.0343 25.8344C12.8254 26.035 12.7412 26.333 12.8142 26.6134C12.8873 26.8937 13.1063 27.1126 13.3866 27.1857C13.667 27.2588 13.9649 27.1746 14.1656 26.9656L20 21.1313L25.8343 26.9656C26.035 27.1746 26.333 27.2588 26.6133 27.1857C26.8937 27.1126 27.1126 26.8937 27.1857 26.6134C27.2588 26.333 27.1746 26.035 26.9656 25.8344L21.1312 20L26.9656 14.1656C27.2034 13.937 27.2764 13.5858 27.1496 13.2813C27.0227 12.9767 26.722 12.7813 26.3922 12.7891Z" fill="#9D9D9D"/>
</svg>
