<svg width="40" height="40" viewBox="0 0 40 40" fill="none" xmlns="http://www.w3.org/2000/svg">
<path d="M32.9427 10.3907L25.6093 3.05732C25.3587 2.80666 25.02 2.66666 24.6667 2.66666H9.33335C7.86002 2.66666 6.66669 3.85999 6.66669 5.33332V34.6666C6.66669 36.14 7.86002 37.3333 9.33335 37.3333H30.6667C32.14 37.3333 33.3333 36.14 33.3333 34.6666V11.3333C33.3333 10.98 33.1933 10.6413 32.9427 10.3907ZM22.6667 30.6666H13.3334C12.5974 30.6666 12 30.0693 12 29.3333C12 28.5973 12.5974 28 13.3334 28H22.6667C23.4027 28 24 28.5973 24 29.3333C24 30.0693 23.4027 30.6666 22.6667 30.6666ZM26.6667 25.3333H13.3334C12.5974 25.3333 12 24.736 12 24C12 23.264 12.5974 22.6666 13.3334 22.6666H26.6667C27.4027 22.6666 28 23.264 28 24C28 24.736 27.4027 25.3333 26.6667 25.3333ZM26.6667 20H13.3334C12.5974 20 12 19.4026 12 18.6666C12 17.9306 12.5974 17.3333 13.3334 17.3333H26.6667C27.4027 17.3333 28 17.9306 28 18.6666C28 19.4026 27.4027 20 26.6667 20ZM25.3333 12C24.5973 12 24 11.4027 24 10.6667V5.20532L30.7947 12H25.3333Z" fill="#9D9D9D"/>
</svg>
