<svg width="29" height="29" viewBox="0 0 29 29" fill="none" xmlns="http://www.w3.org/2000/svg">
<path d="M28.8942 24.959C28.8942 27.1828 27.098 28.9847 24.8811 28.9847H4.01309C1.79706 28.9847 0 27.1828 0 24.959V4.02565C0 1.80188 1.79706 0 4.01309 0H24.8811C27.098 0 28.8942 1.80188 28.8942 4.02565V24.959Z" fill="#3F51B5"/>
<path d="M22.7687 15.2975H20.0655V25.7642H16.0524V15.2975H13.6445V12.077H16.0524V10.1366C16.054 7.31221 17.2234 5.63593 20.5406 5.63593H23.2759V8.85645H21.4404C20.1489 8.85645 20.0655 9.33953 20.0655 10.2437V12.077H23.2759L22.7687 15.2975Z" fill="white"/>
</svg>
