<svg width="60" height="60" viewBox="0 0 60 60" fill="none" xmlns="http://www.w3.org/2000/svg">
<path d="M20.6021 1.64758C13.1475 4.15065 6.78959 9.62717 3.25934 16.5316C2.02546 18.9171 1.13433 21.4537 0.60308 24.0744C-0.750753 30.5925 0.191789 37.5305 3.25934 43.4774C5.24724 47.358 8.10915 50.8018 11.5708 53.4897C14.844 56.0431 18.6485 57.9246 22.6928 58.983C27.7826 60.3269 33.215 60.2933 38.3562 59.151C43.0004 58.1094 47.3875 55.9255 50.8834 52.7673C54.5851 49.4243 57.2242 45.0397 58.6294 40.3192C60.1546 35.1618 60.3603 29.6685 59.4006 24.3936C49.8038 24.3936 40.207 24.3936 30.5931 24.3936C30.5931 28.291 30.5931 32.2052 30.5931 36.1026C36.1455 36.1026 41.7151 36.1026 47.2675 36.1026C46.6163 39.8488 44.3542 43.259 41.1324 45.3757C39.1102 46.7028 36.7967 47.5764 34.3975 47.9796C31.9812 48.3827 29.4963 48.4331 27.0971 47.9628C24.6465 47.4924 22.3158 46.4844 20.2765 45.0733C17.0205 42.839 14.5356 39.5464 13.2674 35.8674C11.965 32.1212 11.9479 27.9382 13.2674 24.192C14.1757 21.5545 15.7009 19.1019 17.7059 17.1196C20.1737 14.6333 23.3783 12.8694 26.84 12.147C29.8048 11.5255 32.9237 11.6431 35.8199 12.4998C38.2876 13.239 40.5497 14.5493 42.4177 16.2964C44.3028 14.4653 46.1707 12.6174 48.0558 10.7863C49.0326 9.79516 50.078 8.85441 51.0377 7.82966C48.1929 5.2426 44.834 3.1595 41.1838 1.84917C34.6374 -0.553101 27.2171 -0.603499 20.6021 1.64758Z" fill="white"/>
<path d="M20.602 1.64743C27.2169 -0.60365 34.6373 -0.553252 41.218 1.83222C44.8682 3.14255 48.2099 5.22564 51.0718 7.81271C50.1121 8.82066 49.0839 9.7782 48.09 10.7694C46.2049 12.6005 44.3369 14.4484 42.4519 16.2795C40.5839 14.5324 38.3218 13.2052 35.8541 12.4829C32.9579 11.6261 29.8389 11.5085 26.8742 12.1301C23.4125 12.8524 20.2079 14.6331 17.7401 17.1026C15.7351 19.0849 14.2099 21.5376 13.3016 24.175C9.95985 21.6384 6.61811 19.0849 3.27637 16.5482C6.78948 9.62701 13.1474 4.1505 20.602 1.64743Z" fill="#E94435"/>
<path d="M0.60308 24.0742C1.13433 21.4536 2.0426 18.9169 3.25934 16.5314C6.60108 19.0681 9.94282 21.6216 13.2846 24.1582C11.965 27.9044 11.9821 32.0874 13.2846 35.8336C9.94282 38.3703 6.60108 40.9237 3.25934 43.4604C0.191789 37.5471 -0.750753 30.5923 0.60308 24.0742Z" fill="#F8BB15"/>
<path d="M30.6102 24.3766C40.207 24.3766 49.8038 24.3766 59.4177 24.3766C60.3774 29.6516 60.1717 35.1449 58.6465 40.3022C57.2413 45.0228 54.6021 49.4241 50.9005 52.7504C47.6616 50.2809 44.4056 47.8114 41.1838 45.3419C44.4056 43.2421 46.6677 39.815 47.3189 36.0688C41.7664 36.0688 36.1969 36.0688 30.6444 36.0688C30.593 32.1882 30.6102 28.2908 30.6102 24.3766Z" fill="#547DBE"/>
<path d="M3.25952 43.4773C6.60126 40.9406 9.943 38.3871 13.2847 35.8505C14.5529 39.5463 17.0378 42.8221 20.2938 45.0564C22.3331 46.4675 24.6638 47.4587 27.1144 47.9458C29.5136 48.4162 32.0156 48.3658 34.4148 47.9626C36.814 47.5595 39.1275 46.6859 41.1497 45.3588C44.3886 47.8283 47.6447 50.2977 50.8665 52.7672C47.3705 55.9422 42.9834 58.1093 38.3392 59.1509C33.2152 60.2932 27.7828 60.3268 22.6759 58.9829C18.6315 57.9245 14.8271 56.043 11.5539 53.4896C8.10933 50.7849 5.24743 47.3411 3.25952 43.4773Z" fill="#34A751"/>
</svg>
