<svg width="29" height="29" viewBox="0 0 29 29" fill="none" xmlns="http://www.w3.org/2000/svg">
<path d="M22.5858 28.9847L6.53343 29C3.00192 29.0032 0.110086 26.108 0.106073 22.5654L0.090823 6.46279C0.0876125 2.92021 2.97382 0.0193259 6.50534 0.0153002L22.5577 2.68415e-06C26.0892 -0.00321784 28.981 2.89203 28.985 6.43461L29.0003 22.5372C29.0043 26.0806 26.1173 28.9815 22.5858 28.9847Z" fill="url(#paint0_radial_5_181)"/>
<path d="M22.5858 28.9847L6.53343 29C3.00192 29.0032 0.110086 26.108 0.106073 22.5654L0.090823 6.46279C0.0876125 2.92021 2.97382 0.0193259 6.50534 0.0153002L22.5577 2.68415e-06C26.0892 -0.00321784 28.981 2.89203 28.985 6.43461L29.0003 22.5372C29.0043 26.0806 26.1173 28.9815 22.5858 28.9847Z" fill="url(#paint1_radial_5_181)"/>
<path d="M14.5461 20.1363C11.4488 20.1363 8.92773 17.6082 8.92773 14.5004C8.92773 11.3926 11.4488 8.8645 14.5461 8.8645C17.6434 8.8645 20.1644 11.3926 20.1644 14.5004C20.1644 17.6082 17.6434 20.1363 14.5461 20.1363ZM14.5461 10.4748C12.3332 10.4748 10.533 12.2807 10.533 14.5004C10.533 16.7202 12.3332 18.5261 14.5461 18.5261C16.7589 18.5261 18.5591 16.7202 18.5591 14.5004C18.5591 12.2807 16.7589 10.4748 14.5461 10.4748Z" fill="white"/>
<path d="M20.5657 9.66963C21.2307 9.66963 21.7697 9.12893 21.7697 8.46194C21.7697 7.79495 21.2307 7.25424 20.5657 7.25424C19.9008 7.25424 19.3618 7.79495 19.3618 8.46194C19.3618 9.12893 19.9008 9.66963 20.5657 9.66963Z" fill="white"/>
<path d="M19.3615 24.9671H9.73014C6.63284 24.9671 4.11182 22.439 4.11182 19.3312V9.66964C4.11182 6.56183 6.63284 4.03372 9.73014 4.03372H19.3615C22.4588 4.03372 24.9799 6.56183 24.9799 9.66964V19.3312C24.9799 22.439 22.4588 24.9671 19.3615 24.9671ZM9.73014 5.64398C7.51732 5.64398 5.71705 7.44989 5.71705 9.66964V19.3312C5.71705 21.5509 7.51732 23.3569 9.73014 23.3569H19.3615C21.5744 23.3569 23.3746 21.5509 23.3746 19.3312V9.66964C23.3746 7.44989 21.5744 5.64398 19.3615 5.64398H9.73014Z" fill="white"/>
<defs>
<radialGradient id="paint0_radial_5_181" cx="0" cy="0" r="1" gradientUnits="userSpaceOnUse" gradientTransform="translate(10.8379 29.0209) scale(36.0367 36.1496)">
<stop stop-color="#FFDD55"/>
<stop offset="0.328" stop-color="#FF543F"/>
<stop offset="0.348" stop-color="#FC5245"/>
<stop offset="0.504" stop-color="#E64771"/>
<stop offset="0.643" stop-color="#D53E91"/>
<stop offset="0.761" stop-color="#CC39A4"/>
<stop offset="0.841" stop-color="#C837AB"/>
</radialGradient>
<radialGradient id="paint1_radial_5_181" cx="0" cy="0" r="1" gradientUnits="userSpaceOnUse" gradientTransform="translate(4.74279 -0.362063) scale(23.9284 15.9934)">
<stop stop-color="#4168C9"/>
<stop offset="0.999" stop-color="#4168C9" stop-opacity="0"/>
</radialGradient>
</defs>
</svg>
