<svg width="60" height="60" viewBox="0 0 60 60" fill="none" xmlns="http://www.w3.org/2000/svg">
<g clip-path="url(#clip0_5_271)">
<path d="M30 60C46.5685 60 60 46.5686 60 30C60 13.4315 46.5685 4.57764e-05 30 4.57764e-05C13.4315 4.57764e-05 0 13.4315 0 30C0 46.5686 13.4315 60 30 60Z" fill="#3C5A9A"/>
<path d="M39.7547 9.20842H33.1089C29.1651 9.20842 24.7785 10.8671 24.7785 16.5838C24.7978 18.5758 24.7785 20.4834 24.7785 22.6304H20.2161V29.8906H24.9197V50.7915H33.5629V29.7527H39.2676L39.7838 22.61H33.4139C33.4139 22.61 33.4282 19.4327 33.4139 18.5099C33.4139 16.2508 35.7646 16.3802 35.906 16.3802C37.0246 16.3802 39.1996 16.3835 39.7579 16.3802V9.20842H39.7547Z" fill="white"/>
</g>
<defs>
<clipPath id="clip0_5_271">
<rect width="60" height="60" fill="white"/>
</clipPath>
</defs>
</svg>
