<svg width="19" height="28" viewBox="0 0 19 28" fill="none" xmlns="http://www.w3.org/2000/svg">
<path d="M13.8587 13.2949V5.5013C13.8587 2.63908 12.0123 0.644226 9.34795 0.644226C6.68364 0.644226 4.83718 2.63908 4.83718 5.5013V13.2949C4.83718 16.1447 6.68364 18.152 9.34795 18.152C12.0123 18.152 13.8587 16.1447 13.8587 13.2949ZM11.9875 13.2949C11.9875 15.1287 10.9342 16.3058 9.34795 16.3058C7.76174 16.3058 6.70839 15.1287 6.70839 13.2949V5.5013C6.70839 3.66748 7.76174 2.49042 9.34795 2.49042C10.9342 2.49042 11.9875 3.66748 11.9875 5.5013V13.2949ZM3.80858 25.2889C3.28814 25.2889 2.87916 25.7102 2.87916 26.2306C2.87916 26.751 3.28814 27.1599 3.80858 27.1599H14.8873C15.4078 27.1599 15.8167 26.751 15.8167 26.2306C15.8167 25.7102 15.4078 25.2889 14.8873 25.2889H10.2774V22.4019C15.0113 22.0054 18.2084 18.6105 18.2084 13.741V11.2257C18.2084 10.7053 17.7995 10.2964 17.279 10.2964C16.7585 10.2964 16.3372 10.7053 16.3372 11.2257V13.6666C16.3372 17.8918 13.5861 20.692 9.34795 20.692C5.1098 20.692 2.3463 17.8918 2.3463 13.6666V11.2257C2.3463 10.7053 1.93737 10.2964 1.41688 10.2964C0.896396 10.2964 0.475098 10.7053 0.475098 11.2257V13.741C0.475098 18.6105 3.68469 22.0054 8.40616 22.4019V25.2889H3.80858Z" fill="white"/>
</svg>
