<svg width="35" height="29" viewBox="0 0 35 29" fill="none" xmlns="http://www.w3.org/2000/svg">
<path d="M34.6164 4.04174C33.3715 4.59486 32.0328 4.96361 30.6202 5.13833C32.0561 4.28328 33.1613 2.91939 33.6798 1.30752C32.3362 2.09735 30.8473 2.67785 29.2638 2.9838C27.9988 1.63923 26.1945 0.805115 24.196 0.805115C20.3571 0.805115 17.2446 3.89923 17.2446 7.71474C17.2446 8.25499 17.308 8.78074 17.426 9.29119C11.6503 9.00054 6.52721 6.24619 3.10004 2.06595C2.49807 3.08766 2.15937 4.28328 2.15937 5.54572C2.15937 7.94421 3.38336 10.0561 5.25025 11.3C4.11053 11.2654 3.03823 10.9473 2.09917 10.4369C2.09917 10.4578 2.09917 10.4884 2.09917 10.5182C2.09917 13.87 4.49579 16.6614 7.67255 17.2966C7.09225 17.456 6.47825 17.5446 5.84579 17.5446C5.39713 17.5446 4.9597 17.4939 4.53592 17.4174C5.4204 20.1564 7.98637 22.1588 11.0267 22.2184C8.64773 24.0686 5.65156 25.1764 2.39373 25.1764C1.8311 25.1764 1.2805 25.1442 0.736328 25.0782C3.81597 27.0338 7.47029 28.1796 11.3935 28.1796C24.1768 28.1796 31.1708 17.6493 31.1708 8.51343C31.1708 8.21392 31.1611 7.91603 31.1475 7.62135C32.5119 6.65439 33.6878 5.43542 34.6164 4.04174Z" fill="url(#paint0_linear_5_182)"/>
<defs>
<linearGradient id="paint0_linear_5_182" x1="5.9116" y1="1.86145" x2="30.4333" y2="26.3066" gradientUnits="userSpaceOnUse">
<stop stop-color="#2AA4F4"/>
<stop offset="1" stop-color="#007AD9"/>
</linearGradient>
</defs>
</svg>
